<svg width="67" height="71" viewBox="0 0 67 71" fill="none" xmlns="http://www.w3.org/2000/svg">
<path d="M24.5168 56.1565H21.6975V64.119H24.5168V56.1565Z" fill="#F29500"/>
<path d="M39.8334 56.1565H37.0142V64.119H39.8334V56.1565Z" fill="#F29500"/>
<path d="M21.0509 63.8904C21.0509 63.8904 20.0604 67.3574 18.3841 67.205C13.5837 66.824 14.4219 70.4814 14.4219 70.4814L21.851 70.329L22.5368 68.1574L23.3368 70.329H27.2228V64.2714L21.0509 63.8904Z" fill="#3321C2"/>
<path d="M40.8992 63.8904C40.8992 63.8904 41.8898 67.3574 43.5661 67.205C48.3664 66.824 47.5283 70.4814 47.5283 70.4814L40.0991 70.329L39.4134 68.1574L38.6133 70.329H34.6511V64.2714L40.8992 63.8904Z" fill="#3321C2"/>
<path d="M50.0049 38.6696C50.0049 38.6696 52.367 52.6515 59.5675 46.594C66.768 40.5364 64.1012 38.7839 64.1012 38.7839" stroke="#F29500" stroke-width="3.04785" stroke-miterlimit="10" stroke-linecap="round" stroke-linejoin="round"/>
<path d="M18.689 57.1471H28.2135L28.7088 49.6418H18.7652L18.689 57.1471Z" fill="#3321C2"/>
<path d="M33.394 57.1471H42.9186L43.4138 49.6418H33.4702L33.394 57.1471Z" fill="#3321C2"/>
<path d="M47.5665 44.4223L53.8908 41.184L47.6046 28.7259L41.0137 32.1166L47.5665 44.4223Z" fill="#3321C2"/>
<path d="M9.43061 34.4406C9.43061 34.4406 -1.88452 31.3547 3.41111 24.116C8.70675 16.8774 6.57325 12.9152 6.57325 12.9152" stroke="#F29500" stroke-width="3.04785" stroke-miterlimit="10" stroke-linecap="round" stroke-linejoin="round"/>
<path d="M4.09668 36.5741L7.48741 30.2879L19.1454 37.3361L15.6023 43.927L4.09668 36.5741Z" fill="#3321C2"/>
<path d="M45.3956 52.804H15.5648C15.26 52.804 14.9933 52.5754 14.9552 52.3087L10.1548 25.9448C10.0786 25.4495 10.5358 25.0305 11.0311 25.1829L13.3932 25.9448C15.6029 26.6687 18.003 26.6687 20.2508 25.9448C22.4605 25.2209 24.8607 25.2209 27.1085 25.9448C29.3182 26.6687 31.7183 26.6687 33.9661 25.9448L32.7089 20.4206C34.9186 19.6967 35.8329 20.0777 38.0426 20.8016L39.2618 20.4206C41.4715 21.1445 45.4337 26.6687 47.6814 25.9448L50.0435 25.1829C50.5388 25.0305 50.996 25.4495 50.9198 25.9448L46.1194 52.3087C45.967 52.5754 45.7003 52.804 45.3956 52.804Z" fill="#F29500"/>
<path d="M30.0414 41.3745C27.7174 41.3745 25.8125 39.4696 25.8125 37.1456H34.3084C34.2703 39.5077 32.3654 41.3745 30.0414 41.3745Z" fill="#262E40"/>
<path d="M30.0414 41.946C27.3745 41.946 25.241 39.7744 25.241 37.1456C25.241 36.8408 25.4696 36.5742 25.8125 36.5742H34.3084C34.6132 36.5742 34.8798 36.8027 34.8798 37.1456C34.8417 39.7744 32.6702 41.946 30.0414 41.946ZM26.384 37.7171C26.6507 39.4696 28.2127 40.8411 30.0033 40.8411C31.832 40.8411 33.394 39.4696 33.6226 37.7171H26.384Z" fill="#262E40"/>
<path d="M30.8039 38.5934H30.6515C30.3468 38.5934 30.0801 38.3267 30.0801 38.0219V36.5742H32.0993V37.3361C32.0612 38.0219 31.4897 38.5934 30.8039 38.5934Z" fill="#F3F1ED"/>
<path d="M28.8613 38.5935H29.0137C29.3185 38.5935 29.5852 38.3268 29.5852 38.022V36.5743H27.566V37.3362C27.6041 38.022 28.1755 38.5935 28.8613 38.5935Z" fill="#F3F1ED"/>
<path d="M25.2415 34.5169C26.9559 34.5169 28.3655 33.1073 28.3655 31.3929C28.3655 29.6785 26.9559 28.2689 25.2415 28.2689C23.5271 28.2689 22.1174 29.6785 22.1174 31.3929C22.1174 33.1073 23.5271 34.5169 25.2415 34.5169Z" fill="#F3F1ED"/>
<path d="M25.1547 32.7262C26.0691 32.7262 26.831 31.9642 26.831 31.0499C26.831 30.1355 26.0691 29.3736 25.1547 29.3736C24.2404 29.3736 23.4784 30.1355 23.4784 31.0499C23.4403 31.9642 24.2023 32.7262 25.1547 32.7262Z" fill="#262E40"/>
<path d="M35.109 34.5169C36.8234 34.5169 38.233 33.1072 38.233 31.3928C38.233 29.6784 36.8234 28.2688 35.109 28.2688C33.3946 28.2688 31.9849 29.6784 31.9849 31.3928C31.9849 33.1072 33.3946 34.5169 35.109 34.5169Z" fill="#F3F1ED"/>
<path d="M35.1749 32.7262C36.0892 32.7262 36.8512 31.9642 36.8512 31.0499C36.8512 30.1355 36.0892 29.3736 35.1749 29.3736C34.2605 29.3736 33.4985 30.1355 33.4985 31.0499C33.4985 31.9642 34.2605 32.7262 35.1749 32.7262Z" fill="#262E40"/>
<path d="M45.3955 53.0705H15.5647C15.2599 53.0705 14.9932 52.8419 14.9551 52.5753L13.3931 43.9651H47.6051L46.0431 52.5753C45.9669 52.8419 45.7002 53.0705 45.3955 53.0705Z" fill="#3D27E6"/>
<path d="M42.1946 39.7744C43.8568 39.7744 45.2043 38.4269 45.2043 36.7647C45.2043 35.1025 43.8568 33.7549 42.1946 33.7549C40.5323 33.7549 39.1848 35.1025 39.1848 36.7647C39.1848 38.4269 40.5323 39.7744 42.1946 39.7744Z" fill="#F2C376"/>
<path d="M18.1924 39.7744C19.8546 39.7744 21.2021 38.4269 21.2021 36.7647C21.2021 35.1025 19.8546 33.7549 18.1924 33.7549C16.5301 33.7549 15.1826 35.1025 15.1826 36.7647C15.1826 38.4269 16.5301 39.7744 18.1924 39.7744Z" fill="#F2C376"/>
<path d="M11.7174 20.1158C11.7174 20.1158 10.6507 16.3441 14.9557 13.9058C10.8412 4.80036 21.4705 3.84791 27.6424 4.30508C33.8143 4.76226 33.4333 0 33.4333 0C33.4333 0 45.0532 4.87655 42.9578 13.1438C49.8536 12.9533 48.7106 20.1158 48.7106 20.1158H11.7174Z" fill="#EBE8CF"/>
<path d="M11.7165 20.1158C11.7165 20.1158 10.6497 16.3441 14.9548 13.9058C13.0499 9.75312 14.231 7.31484 16.6692 5.90521C17.2026 7.39104 16.4026 10.0579 42.8807 13.1438C49.7765 12.9534 48.6335 20.1158 48.6335 20.1158H11.7165Z" fill="#E8D3BD"/>
<path d="M48.6716 20.1158C47.5667 19.9253 22.4982 19.6586 14.9548 13.9058C10.6497 16.3441 11.6022 20.3063 11.7164 20.1158C9.24007 22.4779 10.0782 25.6781 10.0782 25.6781C10.0401 25.8305 10.0401 25.9448 10.1163 25.9448C10.6116 25.9448 35.9849 29.2212 39.528 23.6589C39.528 23.6589 39.0709 29.2974 44.0998 28.9926C49.1287 28.6878 50.8051 25.7162 50.8051 25.7162C50.8051 25.7162 52.1766 20.6492 48.6716 20.1158Z" fill="#EBE8CF"/>
<path d="M48.6716 20.1158C38.5375 22.0207 27.2986 23.8494 24.1364 20.9158C20.9743 17.9823 18.7646 21.2206 17.4693 21.0682C13.8499 20.6491 11.6783 20.192 11.7164 20.1158C9.24007 22.4779 10.0782 25.6781 10.0782 25.6781C10.0401 25.8305 10.0401 25.9448 10.1163 25.9448C10.3449 25.9448 15.7548 26.6305 21.8886 26.8591C23.1078 26.8972 24.4031 26.9353 25.6603 26.9353C26.689 26.9353 27.6795 26.8972 28.7082 26.8591C33.7371 26.6305 38.1946 25.7924 39.5661 23.6589C39.5661 23.6589 39.109 29.2974 44.1379 28.9926C49.1668 28.6878 50.8432 25.7162 50.8432 25.7162C50.8432 25.7162 52.1766 20.6491 48.6716 20.1158Z" fill="#E8D3BD"/>
<path d="M18.3835 26.6686C21.9647 26.8591 23.2219 24.1541 27.1079 25.7161C28.7462 26.2876 29.4319 26.6686 31.413 26.6686C32.2131 26.6686 34.8037 28.4211 32.4417 28.6497C27.8699 26.6305 19.1454 27.9258 19.1454 27.9258C19.1454 27.9258 14.7642 26.4781 18.3835 26.6686Z" fill="#F29500"/>
</svg>
