<svg width="132" height="45" viewBox="0 0 132 45" fill="none" xmlns="http://www.w3.org/2000/svg">
<path d="M31.0089 12.4291C26.4521 12.4291 19.8832 12.4291 17.8711 12.4291C17.8711 11.2884 17.8711 8.70694 17.8711 8.70694C17.8711 8.70694 24.7063 1.83292 25.1502 1.38266C26.4817 0.0318707 28.6713 0.0318707 30.0029 1.38266C30.6834 2.04305 31.0089 2.94357 31.0089 3.81408C31.0089 4.71461 31.0089 11.5586 31.0089 12.4291Z" fill="#8DB3EB"/>
<path d="M0 32.6308C4.55681 32.6308 11.1257 32.6308 13.1378 32.6308C13.1378 33.7715 13.1378 36.353 13.1378 36.353C13.1378 36.353 6.3026 43.197 5.85876 43.6473C4.52722 44.998 2.33758 44.998 1.00605 43.6473C0.325486 42.9869 0 42.0863 0 41.2158C0 40.3753 0 33.5013 0 32.6308Z" fill="#8DB3EB"/>
<path d="M31.01 3.63397C31.01 2.73344 30.6549 1.89295 30.0335 1.26258C29.4121 0.632214 28.554 0.272003 27.6664 0.272003C26.7787 0.272003 25.9206 0.632214 25.2992 1.26258C24.8849 1.68283 24.5594 2.22314 24.4115 2.79348C24.3523 3.06363 24.3227 3.33379 24.2931 3.60395V9.39733C21.6892 7.59628 18.6711 6.63572 15.505 6.63572C6.95358 6.66574 0 13.6898 0 22.3649C0 22.3949 0 22.455 0 22.485V22.605V41.336C0 43.1971 1.50907 44.728 3.37322 44.728C5.23737 44.728 6.74645 43.1971 6.74645 41.336V35.2724C9.35034 37.0735 12.3685 38.0341 15.5346 38.0341C24.086 38.0341 31.0396 30.9799 31.0396 22.3349L31.01 3.63397ZM24.2931 22.3649C24.2931 27.2878 20.3577 31.3101 15.505 31.3101C10.6523 31.3101 6.71686 27.2878 6.71686 22.3649C6.71686 17.442 10.6523 13.4197 15.505 13.4197C20.3577 13.4197 24.2931 17.412 24.2931 22.3649Z" fill="white"/>
<path d="M51.1051 7.46988H55.4142V31.2791H51.1051V29.6012C49.8353 31.2579 48.0451 31.7676 45.6928 31.7676C43.4446 31.7676 41.5294 30.8968 39.9473 29.1552C38.3653 27.4135 37.5742 25.2896 37.5742 22.7834C37.5742 20.2772 38.3653 18.132 39.9682 16.4116C41.5502 14.67 43.4654 13.7992 45.7136 13.7992C48.0451 13.7992 49.8145 14.3432 51.1051 15.9253L51.126 7.46988H51.1051ZM43.1948 26.2241C44.0691 27.1162 45.1724 27.5622 46.5046 27.5622C47.8369 27.5622 48.9402 27.1162 49.8145 26.2241C50.6888 25.3321 51.1051 24.1852 51.1051 22.7834C51.1051 21.3816 50.668 20.2347 49.8145 19.3214C48.9402 18.4293 47.8577 17.9833 46.5046 17.9833C45.1515 17.9833 44.0691 18.4293 43.1948 19.3214C42.3205 20.2134 41.8833 21.3604 41.8833 22.7834C41.8833 24.1852 42.3205 25.3321 43.1948 26.2241Z" fill="white"/>
<path d="M69.6089 14.2666H73.918V31.2793H69.6089V29.8775C68.445 31.2793 66.9027 31.7465 64.6337 31.7465C62.8018 31.7465 61.303 31.1306 60.1164 29.8775C58.9299 28.6244 58.3262 26.904 58.3262 24.7164V14.2666H62.6353V24.1641C62.6353 25.2898 62.9267 26.1606 63.5304 26.7766C64.1341 27.3713 64.9251 27.7748 65.9243 27.7748C67.0276 27.7748 67.9435 27.3288 68.6097 26.6279C69.2758 25.927 69.6089 24.865 69.6089 23.4632V14.2666Z" fill="white"/>
<path d="M101.814 11.2081C99.4616 11.0169 98.275 11.9939 98.275 14.0966V14.2665H101.814H102.501V18.4931H101.814H98.275V31.2792H93.9868V18.4931H91.2598V14.2665H93.9868V14.0966C93.9868 11.6966 94.6321 9.87 95.9644 8.61688C97.2758 7.36377 99.2326 6.83278 101.835 6.98146L102.522 7.0027V11.2718L101.814 11.2081Z" fill="white"/>
<path d="M107.936 24.5675C108.519 26.6914 110.08 27.7746 112.64 27.7746C114.285 27.7746 115.534 27.2012 116.367 26.0755L119.843 28.1145C118.199 30.5357 115.784 31.7464 112.578 31.7464C109.83 31.7464 107.603 30.8968 105.937 29.1977C104.272 27.4985 103.439 25.3534 103.439 22.7622C103.439 20.1922 104.251 18.0683 105.917 16.3479C107.561 14.6275 109.664 13.778 112.245 13.778C114.681 13.778 116.7 14.6488 118.303 16.3691C119.885 18.0895 120.697 20.2347 120.697 22.7622C120.697 23.3356 120.634 23.9303 120.53 24.5675H107.936ZM107.873 21.1692H116.367C116.117 20.0223 115.617 19.1515 114.847 18.578C114.077 18.0046 113.203 17.7285 112.224 17.7285C111.058 17.7285 110.122 18.0258 109.351 18.6205C108.623 19.2364 108.123 20.086 107.873 21.1692Z" fill="white"/>
<path d="M126.942 16.4527C127.271 15.8375 128.004 15.2859 128.919 14.7549C129.835 14.2027 130.876 13.9478 132 13.9478V18.8541C130.689 18.7054 129.523 18.9603 128.482 19.6612C127.442 20.3621 126.942 21.5303 126.942 23.1657V31.3003H122.633V14.2664H126.942V16.4527Z" fill="white"/>
<path d="M81.2694 19.0878C81.2694 19.5338 81.5608 19.9161 82.1437 20.1922C82.7265 20.4683 85.974 21.4241 86.8275 21.7639C87.6809 22.0825 88.3887 22.6347 88.9716 23.4206C89.5545 24.1852 89.8459 25.1622 89.8459 26.3091C89.8459 28.0507 89.2006 29.3888 87.9307 30.3446C86.6609 31.2791 85.058 31.7464 83.1429 31.7464C79.7289 31.7464 77.3766 30.3871 76.1484 27.6897L79.8746 25.5445C80.4367 26.9251 81.4775 27.7746 83.1637 27.7746C84.7041 27.7746 85.4535 27.2224 85.4535 26.3091C85.4535 25.8631 85.1621 25.4596 84.5792 25.2047C83.8507 24.9073 80.749 23.9303 79.8955 23.5905C79.042 23.2507 78.3342 22.7197 77.7513 21.9763C77.1685 21.2329 76.877 20.3196 76.877 19.194C76.877 17.5161 77.4807 16.1992 78.6881 15.2222C79.8955 14.2665 81.4151 13.778 83.2053 13.778C84.5584 13.778 85.7866 14.0965 86.9107 14.7125C88.014 15.3284 88.9091 16.2205 89.5545 17.3886L85.8699 19.4276C85.2246 18.2594 84.4543 17.686 83.2053 17.686C82.6433 17.686 82.1853 17.8134 81.8314 18.0683C81.4567 18.3232 81.2694 18.663 81.2694 19.0878Z" fill="white"/>
</svg>
